<svg xmlns="http://www.w3.org/2000/svg" version="1.1" xmlns:xlink="http://www.w3.org/1999/xlink" xmlns:svgjs="http://svgjs.dev/svgjs" width="1000" height="623" viewBox="0 0 1000 623"><g transform="matrix(1,0,0,1,-0.6060606060606233,0.2522267206477409)"><svg viewBox="0 0 396 247" data-background-color="#046380" preserveAspectRatio="xMidYMid meet" height="623" width="1000" xmlns="http://www.w3.org/2000/svg" xmlns:xlink="http://www.w3.org/1999/xlink"><g id="tight-bounds" transform="matrix(1,0,0,1,0.2400000000000091,-0.09999999999999432)"><svg viewBox="0 0 395.52 247.2" height="247.2" width="395.52"><g><svg></svg></g><g><svg viewBox="0 0 395.52 247.2" height="247.2" width="395.52"><g transform="matrix(1,0,0,1,101.8828132780083,47.21520000000001)"><svg viewBox="0 0 191.75437344398338 152.76959999999997" height="152.76959999999997" width="191.75437344398338"><g><svg viewBox="0 0 191.75437344398338 152.76959999999997" height="152.76959999999997" width="191.75437344398338"><g><svg viewBox="0 0 191.75437344398338 152.76959999999997" height="152.76959999999997" width="191.75437344398338"><g><svg viewBox="0 0 191.75437344398338 152.76959999999997" height="152.76959999999997" width="191.75437344398338"><g id="textblocktransform"><svg viewBox="0 0 191.75437344398338 152.76959999999997" height="152.76959999999997" width="191.75437344398338" id="textblock"><g><svg viewBox="0 0 191.75437344398338 152.76959999999997" height="152.76959999999997" width="191.75437344398338"><g transform="matrix(1,0,0,1,0,0)"><svg width="191.75437344398338" viewBox="4.480000019073486 -36.150001525878906 45.369998931884766 36.150001525878906" height="152.76959999999997" data-palette-color="#ffffff"><path d="M11.23-36.15L11.23 0 4.48 0 4.48-36.15 11.23-36.15ZM49.85-36.15L49.85 0 43.07 0 43.07-15.8 26.12-15.8 26.12 0 19.35 0 19.35-36.15 26.12-36.15 26.12-20.6 43.07-20.6 43.07-36.15 49.85-36.15Z" opacity="1" transform="matrix(1,0,0,1,0,0)" fill="#ffffff" class="undefined-text-0" data-fill-palette-color="primary" id="text-0"></path></svg></g></svg></g></svg></g></svg></g></svg></g></svg></g></svg></g><path d="M111.336 41.215L111.336 0 358.536 0 358.536 247.2 111.336 247.2 111.336 205.985 125.113 205.985 125.113 233.423 344.759 233.423 344.759 13.777 125.113 13.777 125.113 41.215Z" fill="#ffffff" stroke="transparent" data-fill-palette-color="primary"></path></svg></g><defs></defs></svg><rect width="395.52" height="247.2" fill="none" stroke="none" visibility="hidden"></rect></g></svg></g></svg>